solid OpenSCAD_Model
  facet normal -0 0 1
    outer loop
      vertex -8.75 38.5 -13
      vertex 8.75 -2.5 -13
      vertex 8.75 38.5 -13
    endloop
  endfacet
  facet normal 0 0 1
    outer loop
      vertex 8.75 -2.5 -13
      vertex -8.75 38.5 -13
      vertex -8.75 -2.5 -13
    endloop
  endfacet
  facet normal 0 0 -1
    outer loop
      vertex -8.75 -2.5 -16
      vertex 8.75 38.5 -16
      vertex 8.75 -2.5 -16
    endloop
  endfacet
  facet normal -0 0 -1
    outer loop
      vertex 8.75 38.5 -16
      vertex -8.75 -2.5 -16
      vertex -8.75 38.5 -16
    endloop
  endfacet
  facet normal 0 -1 0
    outer loop
      vertex -8.75 -2.5 -16
      vertex 8.75 -2.5 -13
      vertex -8.75 -2.5 -13
    endloop
  endfacet
  facet normal 0 -1 -0
    outer loop
      vertex 8.75 -2.5 -13
      vertex -8.75 -2.5 -16
      vertex 8.75 -2.5 -16
    endloop
  endfacet
  facet normal 1 -0 0
    outer loop
      vertex 8.75 -2.5 -13
      vertex 8.75 38.5 -16
      vertex 8.75 38.5 -13
    endloop
  endfacet
  facet normal 1 0 0
    outer loop
      vertex 8.75 38.5 -16
      vertex 8.75 -2.5 -13
      vertex 8.75 -2.5 -16
    endloop
  endfacet
  facet normal 0 1 -0
    outer loop
      vertex 8.75 38.5 -16
      vertex -8.75 38.5 -13
      vertex 8.75 38.5 -13
    endloop
  endfacet
  facet normal 0 1 0
    outer loop
      vertex -8.75 38.5 -13
      vertex 8.75 38.5 -16
      vertex -8.75 38.5 -16
    endloop
  endfacet
  facet normal -1 0 0
    outer loop
      vertex -8.75 -2.5 -16
      vertex -8.75 38.5 -13
      vertex -8.75 38.5 -16
    endloop
  endfacet
  facet normal -1 -0 0
    outer loop
      vertex -8.75 38.5 -13
      vertex -8.75 -2.5 -16
      vertex -8.75 -2.5 -13
    endloop
  endfacet
endsolid OpenSCAD_Model
